<?xml version="1.0" encoding="iso-8859-1"?>
<!-- Generator: Adobe Illustrator 19.0.0, SVG Export Plug-In . SVG Version: 6.00 Build 0)  -->
<svg version="1.1" id="Capa_1" xmlns="http://www.w3.org/2000/svg" xmlns:xlink="http://www.w3.org/1999/xlink" x="0px" y="0px"
	 viewBox="0 0 479.2 479.2" style="enable-background:new 0 0 479.2 479.2;" xml:space="preserve">
<circle style="fill:#EC7422;" cx="216" cy="215.6" r="88"/>
<g>
	<path style="fill:#B5DEF3;" d="M152,199.6h-8c0-22.4-17.6-40-40-40s-40,17.6-40,40H32c-13.6,0-24,10.4-24,24s10.4,24,24,24h120
		c13.6,0,24-10.4,24-24S165.6,199.6,152,199.6z"/>
	<path style="fill:#B5DEF3;" d="M448,351.6h-64c-13.6,0-24-10.4-24-24c0-13.6,10.4-24,24-24h16c13.6,0,24-10.4,24-24
		c0-13.6-10.4-24-24-24H208c-13.6,0-24,10.4-24,24c0,13.6,10.4,24,24,24h80c13.6,0,24,10.4,24,24c0,13.6-10.4,24-24,24h-24
		c-13.6,0-24,10.4-24,24c0,13.6,10.4,24,24,24h184c13.6,0,24-10.4,24-24C472,362,461.6,351.6,448,351.6z"/>
</g>
<g>
	<g>
		<path id="SVGCleanerId_0" style="fill:#FFBF41;" d="M208,71.6h16v32h-16V71.6z"/>
	</g>
	<g>
		<path id="SVGCleanerId_1" style="fill:#FFBF41;" d="M108.673,119.454l11.315-11.312l22.624,22.63l-11.315,11.312L108.673,119.454z
			"/>
	</g>
	<g>
		<path id="SVGCleanerId_2" style="fill:#FFBF41;" d="M72,207.6h32v16H72V207.6z"/>
	</g>
	<g transform="matrix(1 0.00014 -0.00014 1 0.005 0)">
		<path id="SVGCleanerId_3" style="fill:#FFBF41;" d="M108.52,311.618l22.627-22.627l11.314,11.314l-22.627,22.627L108.52,311.618z"
			/>
	</g>
	<g>
		<path id="SVGCleanerId_4" style="fill:#FFBF41;" d="M328,207.6h32v16h-32V207.6z"/>
	</g>
	<g>
		<path id="SVGCleanerId_5" style="fill:#FFBF41;" d="M289.546,130.9l22.627-22.627l11.314,11.314l-22.627,22.627L289.546,130.9z"/>
	</g>
</g>
<path id="SVGCleanerId_0_1_" d="M208,71.6h16v32h-16V71.6z"/>
<path id="SVGCleanerId_1_1_" d="M108.673,119.454l11.315-11.312l22.624,22.63l-11.315,11.312L108.673,119.454z"/>
<path id="SVGCleanerId_2_1_" d="M72,207.6h32v16H72V207.6z"/>
<path id="SVGCleanerId_3_1_" d="M108.524,311.6l22.624-22.63l11.315,11.312l-22.624,22.63L108.524,311.6z"/>
<path id="SVGCleanerId_4_1_" d="M328,207.6h32v16h-32V207.6z"/>
<path id="SVGCleanerId_5_1_" d="M289.546,130.9l22.627-22.627l11.314,11.314l-22.627,22.627L289.546,130.9z"/>
<path d="M32,255.6h96.8c12.8,28,38.4,48.8,68.8,54.4c3.2,0.8,6.4,1.6,9.6,1.6h78.4c8.8,0,16.8,6.4,17.6,15.2
	c0.8,8.8-6.4,16-15.2,16.8h-0.8h-22.4c-17.6,0-32,12.8-33.6,30.4c-0.8,8.8,2.4,17.6,8.8,24c6.4,6.4,14.4,9.6,23.2,9.6h184
	c17.6,0,32-14.4,32-32c0-17.6-14.4-32-32-32h-62.4c-8.8,0-16.8-6.4-17.6-15.2c-0.8-8.8,6.4-16,15.2-16.8h0.8h14.4
	c17.6,0,32-12.8,33.6-30.4c0.8-8.8-2.4-17.6-8.8-24c-5.6-5.6-13.6-9.6-22.4-9.6h-93.6C324,198,297.6,142.8,248,125.2
	c-10.4-4-20.8-5.6-32-5.6c-32.8,0-62.4,16.8-80.8,44c-20-17.6-50.4-15.2-68,4c-5.6,6.4-9.6,15.2-11.2,24H32c-17.6,0-32,14.4-32,32
	S14.4,255.6,32,255.6L32,255.6z M412,268.4c3.2,3.2,4.8,7.2,4,12c-0.8,8.8-8.8,15.2-17.6,15.2H384c-8.8,0-16.8,4-23.2,9.6
	c-6.4,6.4-9.6,15.2-8.8,24c1.6,17.6,16,30.4,33.6,30.4H448c8.8,0,16,7.2,16,16s-7.2,16-16,16H264c-8.8,0-16-7.2-16-16v-0.8
	c0.8-8.8,8.8-15.2,17.6-15.2H288c8.8,0,16.8-4,23.2-9.6c6.4-6.4,9.6-15.2,8.8-24c-1.6-17.6-16-30.4-33.6-30.4H208
	c-8.8,0-16-7.2-16-16v-0.8c0.8-8.8,8.8-15.2,17.6-15.2H400C404,263.6,408.8,265.2,412,268.4z M216,135.6c44,0,80,36,80,80
	c0,11.2-2.4,21.6-7.2,32h-80c-17.6,0-32,12.8-33.6,30.4c0,2.4,0,4.8,0.8,7.2c-12.8-7.2-22.4-16.8-29.6-29.6h5.6
	c17.6,0,32-14.4,32-32s-14.4-32-32-32h-0.8c-0.8-4.8-2.4-10.4-4.8-14.4C160.8,151.6,187.2,135.6,216,135.6L216,135.6z M32,207.6h40
	v-8c0-17.6,14.4-32,32-32s32,14.4,32,32v8h16c8.8,0,16,7.2,16,16s-7.2,16-16,16H32c-8.8,0-16-7.2-16-16S23.2,207.6,32,207.6z"/>
<g>
</g>
<g>
</g>
<g>
</g>
<g>
</g>
<g>
</g>
<g>
</g>
<g>
</g>
<g>
</g>
<g>
</g>
<g>
</g>
<g>
</g>
<g>
</g>
<g>
</g>
<g>
</g>
<g>
</g>
</svg>
