<?xml version="1.0" encoding="iso-8859-1"?>
<!-- Generator: Adobe Illustrator 19.0.0, SVG Export Plug-In . SVG Version: 6.00 Build 0)  -->
<svg version="1.1" id="Capa_1" xmlns="http://www.w3.org/2000/svg" xmlns:xlink="http://www.w3.org/1999/xlink" x="0px" y="0px"
	 viewBox="0 0 480 480" style="enable-background:new 0 0 480 480;" xml:space="preserve">
<circle style="fill:#EC7422;" cx="384" cy="156.046" r="56"/>
<path style="fill:#B5DEF3;" d="M448,188.046H256c-13.255,0-24,10.745-24,24s10.745,24,24,24h-56c-13.255,0-24,10.745-24,24
	c0,13.255,10.745,24,24,24h192c13.255,0,24-10.745,24-24c0-13.255-10.745-24-24-24h56c13.255,0,24-10.745,24-24
	S461.255,188.046,448,188.046L448,188.046z"/>
<path style="fill:#88D0EF;" d="M347.712,143.758c-7.501-7.499-17.673-11.712-28.28-11.712H304c0.191-26.319-20.991-47.809-47.31-48
	c-2.394-0.017-4.785,0.146-7.154,0.488C232.16,43.912,185.143,25.067,144.52,42.443c-24.683,10.558-42.425,32.793-47.24,59.203
	c-1.812,10.063-1.703,20.378,0.32,30.4h-7.888c-21.028-0.353-38.939,15.202-41.536,36.072
	c-2.169,21.985,13.894,41.565,35.879,43.735c1.311,0.129,2.628,0.194,3.945,0.193H32c-13.255,0-24,10.745-24,24s10.745,24,24,24h224
	c13.255,0,24-10.745,24-24s-10.745-24-24-24h63.432c22.091,0,40-17.909,39.999-40.001
	C359.431,161.435,355.216,151.26,347.712,143.758z"/>
<g>
	<g>
		<path id="SVGCleanerId_0" style="fill:#C9EBF4;" d="M174.64,337.118L152,350.19v-26.144h-16v26.144l-22.64-13.072l-8,13.856
			L128,364.046l-22.64,13.072l8,13.856L136,377.902v26.144h16v-26.144l22.64,13.072l8-13.856L160,364.046l22.64-13.072
			L174.64,337.118z"/>
	</g>
	<g>
		<path id="SVGCleanerId_1" style="fill:#C9EBF4;" d="M302.32,385.118l-22.648,13.072v-26.144h-16v26.144l-22.64-13.072l-8,13.856
			l22.64,13.072l-22.64,13.072l8,13.856l22.64-13.072v26.144h16v-26.144l22.648,13.072l8-13.856l-22.64-13.072l22.64-13.072
			L302.32,385.118z"/>
	</g>
	<path style="fill:#C9EBF4;" d="M414.76,334.974l-8-13.856l-22.64,13.072v-26.144h-16v26.144l-22.64-13.072l-8,13.856l22.64,13.072
		l-22.64,13.072l8,13.856l22.64-13.072v26.144h16v-26.144l22.64,13.072l8-13.856l-22.64-13.072L414.76,334.974z"/>
</g>
<path d="M32,268.046h137.136c3.637,14.085,16.317,23.945,30.864,24h192c17.673-0.005,31.996-14.336,31.991-32.009
	c-0.002-5.614-1.48-11.129-4.287-15.991H448c17.673,0,32-14.327,32-32s-14.327-32-32-32h-4.8
	c13.527-32.569-1.91-69.938-34.479-83.465c-30.109-12.505-64.803-0.321-80.481,28.265c-2.903-0.536-5.848-0.804-8.8-0.8h-8
	c-4.013-27.538-27.611-47.969-55.44-48c-0.536,0-1.064,0-1.6,0c-22.051-43.311-75.037-60.545-118.348-38.494
	c-24.48,12.464-41.736,35.644-46.652,62.67c-1.402,7.86-1.752,15.872-1.04,23.824c-24.609,0.379-45.161,18.865-48.136,43.296
	c-1.282,13.371,3.067,26.672,12,36.704H32c-17.673,0-32,14.327-32,32S14.327,268.046,32,268.046L32,268.046z M464,212.046
	c0,8.837-7.163,16-16,16h-56v16c8.837,0,16,7.163,16,16c0,8.837-7.163,16-16,16H200c-5.691-0.017-10.941-3.066-13.776-8H256
	c17.673-0.005,31.996-14.336,31.991-32.009c-0.002-5.614-1.48-11.129-4.287-15.991h35.728c17.15,0.201,33.03-9.012,41.368-24H448
	C456.837,196.046,464,203.209,464,212.046z M384,108.046c26.399-0.112,47.89,21.198,48.002,47.597
	c0.036,8.577-2.236,17.006-6.578,24.403h-58.76c2.691-15.319-2.274-30.986-13.296-41.96c-2.977-2.959-6.328-5.517-9.968-7.608
	C352.167,116.508,367.507,108.033,384,108.046L384,108.046z M32,220.046h56v-16c-17.673,0.005-32.004-14.318-32.008-31.992
	c0-1.071,0.053-2.142,0.16-3.208c2.233-16.755,16.701-29.156,33.6-28.8h17.672l-1.944-9.6c-1.827-9.036-1.927-18.335-0.296-27.408
	c7.154-39.116,44.664-65.025,83.779-57.871c23.754,4.345,43.748,20.308,53.245,42.511l2.4,5.6l6.024-0.8
	c21.678-3.151,41.806,11.868,44.957,33.546c0.29,1.994,0.427,4.007,0.411,6.022v8h23.432c17.673,0,32,14.327,32,32s-14.327,32-32,32
	H256v16c8.837,0,16,7.163,16,16s-7.163,16-16,16H32c-8.837,0-16-7.163-16-16S23.163,220.046,32,220.046z"/>
<path id="SVGCleanerId_0_1_" d="M174.64,337.118L152,350.19v-26.144h-16v26.144l-22.64-13.072l-8,13.856L128,364.046l-22.64,13.072
	l8,13.856L136,377.902v26.144h16v-26.144l22.64,13.072l8-13.856L160,364.046l22.64-13.072L174.64,337.118z"/>
<path id="SVGCleanerId_1_1_" d="M302.32,385.118l-22.648,13.072v-26.144h-16v26.144l-22.64-13.072l-8,13.856l22.64,13.072
	l-22.64,13.072l8,13.856l22.64-13.072v26.144h16v-26.144l22.648,13.072l8-13.856l-22.64-13.072l22.64-13.072L302.32,385.118z"/>
<path d="M406.76,321.118l-22.64,13.072v-26.144h-16v26.144l-22.64-13.072l-8,13.856l22.64,13.072l-22.64,13.072l8,13.856
	l22.64-13.072v26.144h16v-26.144l22.64,13.072l8-13.856l-22.64-13.072l22.64-13.072L406.76,321.118z"/>
<g>
</g>
<g>
</g>
<g>
</g>
<g>
</g>
<g>
</g>
<g>
</g>
<g>
</g>
<g>
</g>
<g>
</g>
<g>
</g>
<g>
</g>
<g>
</g>
<g>
</g>
<g>
</g>
<g>
</g>
</svg>
