<?xml version="1.0" encoding="iso-8859-1"?>
<!-- Generator: Adobe Illustrator 19.0.0, SVG Export Plug-In . SVG Version: 6.00 Build 0)  -->
<svg version="1.1" id="Capa_1" xmlns="http://www.w3.org/2000/svg" xmlns:xlink="http://www.w3.org/1999/xlink" x="0px" y="0px"
	 viewBox="0 0 479.671 479.671" style="enable-background:new 0 0 479.671 479.671;" xml:space="preserve">
<path style="fill:#C7CAC7;" d="M447.671,186.438h-72c-13.6,0-24-10.4-24-24s10.4-24,24-24h16c13.6,0,24-10.4,24-24s-10.4-24-24-24
	h-192c-13.6,0-24,10.4-24,24s10.4,24,24,24h80c13.6,0,24,10.4,24,24s-10.4,24-24,24h-24c-13.6,0-24,10.4-24,24s10.4,24,24,24h192
	c13.6,0,24-10.4,24-24S461.271,186.438,447.671,186.438L447.671,186.438z"/>
<g>
	<polygon style="fill:#FFBF41;" points="215.671,330.438 175.671,330.438 199.671,266.438 111.671,354.438 153.271,354.438 
		127.671,426.438 	"/>
	<polygon style="fill:#FFBF41;" points="383.671,330.438 343.671,330.438 367.671,266.438 279.671,354.438 321.271,354.438 
		295.671,426.438 	"/>
</g>
<g>
	
		<rect x="230.341" y="306.77" transform="matrix(-0.3165 0.9486 -0.9486 -0.3165 635.0084 171.9892)" style="fill:#C9EBF4;" width="50.4" height="16"/>
	
		<rect x="206.356" y="378.804" transform="matrix(-0.3165 0.9486 -0.9486 -0.3165 671.7639 289.5742)" style="fill:#C9EBF4;" width="50.4" height="16"/>
	
		<rect x="198.829" y="438.387" transform="matrix(-0.3165 0.9486 -0.9486 -0.3165 702.0491 386.9175)" style="fill:#C9EBF4;" width="25.6" height="16"/>
	
		<rect x="398.342" y="314.817" transform="matrix(-0.3165 0.9486 -0.9486 -0.3165 863.8146 23.2189)" style="fill:#C9EBF4;" width="50.4" height="16"/>
	
		<rect x="374.341" y="386.772" transform="matrix(-0.3165 0.9486 -0.9486 -0.3165 900.4731 140.7137)" style="fill:#C9EBF4;" width="50.4" height="16"/>
	
		<rect x="366.862" y="446.434" transform="matrix(-0.3165 0.9486 -0.9486 -0.3165 930.8974 238.1168)" style="fill:#C9EBF4;" width="25.6" height="16"/>
	
		<rect x="62.35" y="314.827" transform="matrix(-0.3165 0.9486 -0.9486 -0.3165 421.491 341.9513)" style="fill:#C9EBF4;" width="50.4" height="16"/>
	
		<rect x="38.349" y="386.781" transform="matrix(-0.3165 0.9486 -0.9486 -0.3165 458.1495 459.4461)" style="fill:#C9EBF4;" width="50.4" height="16"/>
	
		<rect x="30.846" y="446.444" transform="matrix(-0.3165 0.9486 -0.9486 -0.3165 488.5422 556.8719)" style="fill:#C9EBF4;" width="25.6" height="16"/>
</g>
<path style="fill:#7D8F9F;" d="M255.671,98.438c0-44-36-80-80-80c-26.4,0-51.2,12.8-65.6,34.4c-20.8-8-43.2,2.4-51.2,22.4
	c-2.4,5.6-3.2,10.4-3.2,15.2c0,3.2,0,5.6,0.8,8.8c-30.4,4-52,32-48,63.2c4,27.2,27.2,48,55.2,48h192c31.2,0,56-24.8,56-56
	S286.871,98.438,255.671,98.438z"/>
<path d="M63.671,218.438h160.8c4,14.4,16,24,31.2,24h192c17.6,0,32-14.4,32-32s-14.4-32-32-32h-72c-8.8,0-16-7.2-16-16s7.2-16,16-16
	h16c17.6,0,32-14.4,32-32s-14.4-32-32-32h-129.6c-8.8-48-54.4-79.2-102.4-70.4c-20.8,4-40,15.2-52.8,32c-4-0.8-7.2-1.6-11.2-1.6
	c-26.4,0-48,21.6-48,48c0,0.8,0,1.6,0,2.4c-34.4,8.8-54.4,44-45.6,78.4C9.271,198.438,34.871,218.438,63.671,218.438z
	 M407.671,114.438c0,8.8-7.2,16-16,16h-16c-17.6,0-32,14.4-32,32s14.4,32,32,32h72c8.8,0,16,7.2,16,16s-7.2,16-16,16h-192
	c-5.6,0-11.2-3.2-13.6-8h13.6c35.2,0,64-28.8,64-64c0-23.2-12.8-44.8-32.8-56h104.8C400.471,98.438,407.671,105.638,407.671,114.438
	z M57.271,107.238l8.8-0.8l-1.6-8.8c-0.8-2.4-0.8-4.8-0.8-7.2c0-17.6,13.6-32,31.2-32c4,0,8,0.8,12,2.4l5.6,2.4l3.2-4.8
	c22.4-32.8,67.2-40.8,100-18.4c20,12.8,32,34.4,32,58.4v8h8c26.4,0,48,21.6,48,48s-21.6,48-48,48h-192c-26.4,0-48-21.6-48-48
	C16.471,130.438,34.071,110.438,57.271,107.238z"/>
<path d="M203.671,260.038c-3.2-2.4-7.2-1.6-9.6,0.8l-88,88c-3.2,3.2-3.2,8,0,11.2c1.6,1.6,3.2,2.4,5.6,2.4h30.4l-21.6,61.6
	c-1.6,4,0.8,8.8,4.8,10.4c3.2,0.8,6.4,0,8.8-2.4l88-96c3.2-3.2,2.4-8-0.8-11.2c-1.6-1.6-3.2-2.4-5.6-2.4h-28.8l20-52.8
	C208.471,265.638,206.871,261.638,203.671,260.038z M197.271,338.438l-48.8,53.6l12-34.4c1.6-4-0.8-8.8-4.8-10.4
	c-0.8,0-1.6-0.8-2.4-0.8h-22.4l48-48l-11.2,29.6c-1.6,4,0.8,8.8,4.8,10.4c0.8,0,1.6,0.8,3.2,0.8h21.6V338.438z"/>
<path d="M390.871,327.238c-0.8-3.2-4-4.8-7.2-4.8h-28.8l20-52.8c1.6-4-0.8-8.8-4.8-10.4c-3.2-0.8-6.4,0-8.8,1.6l-88,88
	c-3.2,3.2-3.2,8,0,11.2c1.6,1.6,3.2,2.4,5.6,2.4h30.4l-21.6,61.6c-1.6,4,0.8,8.8,4.8,10.4c3.2,0.8,6.4,0,8.8-2.4l88-96
	C391.671,333.638,392.471,330.438,390.871,327.238z M316.471,392.038l12-34.4c1.6-4-0.8-8.8-4.8-10.4c-0.8,0-1.6-0.8-2.4-0.8h-22.4
	l48-48l-11.2,29.6c-1.6,4,0.8,8.8,4.8,10.4c0.8,0,1.6,0.8,3.2,0.8h21.6L316.471,392.038z"/>
<rect x="230.341" y="306.77" transform="matrix(-0.3165 0.9486 -0.9486 -0.3165 635.0084 171.9892)" width="50.4" height="16"/>
<rect x="206.356" y="378.804" transform="matrix(-0.3165 0.9486 -0.9486 -0.3165 671.7639 289.5742)" width="50.4" height="16"/>
<rect x="198.829" y="438.387" transform="matrix(-0.3165 0.9486 -0.9486 -0.3165 702.0491 386.9175)" width="25.6" height="16"/>
<rect x="398.34" y="314.792" transform="matrix(-0.3162 0.9487 -0.9487 -0.3162 863.6933 23.0492)" width="50.4" height="16"/>
<rect x="374.341" y="386.772" transform="matrix(-0.3165 0.9486 -0.9486 -0.3165 900.4731 140.7137)" width="50.4" height="16"/>
<rect x="366.862" y="446.434" transform="matrix(-0.3165 0.9486 -0.9486 -0.3165 930.8974 238.1168)" width="25.6" height="16"/>
<rect x="62.35" y="314.827" transform="matrix(-0.3165 0.9486 -0.9486 -0.3165 421.491 341.9513)" width="50.4" height="16"/>
<rect x="38.349" y="386.781" transform="matrix(-0.3165 0.9486 -0.9486 -0.3165 458.1495 459.4461)" width="50.4" height="16"/>
<rect x="30.846" y="446.444" transform="matrix(-0.3165 0.9486 -0.9486 -0.3165 488.5422 556.8719)" width="25.6" height="16"/>
<g>
</g>
<g>
</g>
<g>
</g>
<g>
</g>
<g>
</g>
<g>
</g>
<g>
</g>
<g>
</g>
<g>
</g>
<g>
</g>
<g>
</g>
<g>
</g>
<g>
</g>
<g>
</g>
<g>
</g>
</svg>
