<?xml version="1.0" encoding="iso-8859-1"?>
<!-- Generator: Adobe Illustrator 19.0.0, SVG Export Plug-In . SVG Version: 6.00 Build 0)  -->
<svg version="1.1" id="Capa_1" xmlns="http://www.w3.org/2000/svg" xmlns:xlink="http://www.w3.org/1999/xlink" x="0px" y="0px"
	 viewBox="0 0 480 480" style="enable-background:new 0 0 480 480;" xml:space="preserve">
<path style="fill:#C7CAC7;" d="M347.712,139.758c-7.501-7.499-17.673-11.712-28.28-11.712H304c0.191-26.319-20.991-47.809-47.31-48
	c-2.394-0.017-4.785,0.146-7.154,0.488C232.16,39.912,185.143,21.067,144.52,38.443c-24.683,10.558-42.425,32.793-47.24,59.203
	c-1.812,10.063-1.703,20.378,0.32,30.4h-7.888c-21.028-0.353-38.939,15.202-41.536,36.072
	c-2.169,21.985,13.894,41.565,35.879,43.735c1.311,0.129,2.628,0.194,3.945,0.193H32c-13.255,0-24,10.745-24,24s10.745,24,24,24h224
	c13.255,0,24-10.745,24-24s-10.745-24-24-24h63.432c22.091,0,40-17.909,39.999-40.001
	C359.431,157.435,355.216,147.26,347.712,139.758z"/>
<g>
	<g>
		<path id="SVGCleanerId_0" style="fill:#C9EBF4;" d="M64,288.046h16v48H64V288.046z"/>
	</g>
	<g>
		<path id="SVGCleanerId_1" style="fill:#C9EBF4;" d="M64,352.046h16v48H64V352.046z"/>
	</g>
	<g>
		<path id="SVGCleanerId_2" style="fill:#C9EBF4;" d="M112,336.046h16v48h-16V336.046z"/>
	</g>
	<g>
		<path id="SVGCleanerId_3" style="fill:#C9EBF4;" d="M112,400.046h16v48h-16V400.046z"/>
	</g>
	<g>
		<path id="SVGCleanerId_4" style="fill:#C9EBF4;" d="M160,296.046h16v48h-16V296.046z"/>
	</g>
	<g>
		<path id="SVGCleanerId_5" style="fill:#C9EBF4;" d="M160,360.046h16v48h-16V360.046z"/>
	</g>
	<g>
		<path id="SVGCleanerId_6" style="fill:#C9EBF4;" d="M208,336.046h16v48h-16V336.046z"/>
	</g>
	<g>
		<path id="SVGCleanerId_7" style="fill:#C9EBF4;" d="M256,304.046h16v48h-16V304.046z"/>
	</g>
	<g>
		<path id="SVGCleanerId_8" style="fill:#C9EBF4;" d="M256,368.046h16v48h-16V368.046z"/>
	</g>
	<g>
		<path id="SVGCleanerId_9" style="fill:#C9EBF4;" d="M304,344.046h16v48h-16V344.046z"/>
	</g>
	<g>
		<path id="SVGCleanerId_10" style="fill:#C9EBF4;" d="M352,304.046h16v48h-16V304.046z"/>
	</g>
	<g>
		<path id="SVGCleanerId_11" style="fill:#C9EBF4;" d="M352,368.046h16v48h-16V368.046z"/>
	</g>
	<g>
		<path id="SVGCleanerId_12" style="fill:#C9EBF4;" d="M400,344.046h16v48h-16V344.046z"/>
	</g>
	<g>
		<path id="SVGCleanerId_13" style="fill:#C9EBF4;" d="M208,400.046h16v48h-16V400.046z"/>
	</g>
	<g>
		<path id="SVGCleanerId_14" style="fill:#C9EBF4;" d="M304,408.046h16v48h-16V408.046z"/>
	</g>
	<g>
		<path id="SVGCleanerId_15" style="fill:#C9EBF4;" d="M400,408.046h16v48h-16V408.046z"/>
	</g>
</g>
<path style="fill:#7D8F9F;" d="M448,184.046H256c-13.255,0-24,10.745-24,24s10.745,24,24,24h-56c-13.255,0-24,10.745-24,24
	c0,13.255,10.745,24,24,24h192c13.255,0,24-10.745,24-24c0-13.255-10.745-24-24-24h56c13.255,0,24-10.745,24-24
	S461.255,184.046,448,184.046L448,184.046z"/>
<path d="M448,176.046h-81.336c4.485-26.06-13.006-50.822-39.066-55.306c-2.686-0.462-5.408-0.694-8.134-0.694h-8
	c-4.014-27.547-27.626-47.981-55.464-48c-0.536,0-1.064,0-1.6,0c-22.051-43.311-75.037-60.545-118.348-38.494
	c-24.48,12.464-41.736,35.644-46.652,62.67c-1.402,7.86-1.752,15.872-1.04,23.824c-24.609,0.379-45.161,18.865-48.136,43.296
	c-1.282,13.371,3.067,26.672,12,36.704H32c-17.673,0-32,14.327-32,32s14.327,32,32,32h137.136c3.637,14.085,16.317,23.945,30.864,24
	h192c17.673-0.005,31.996-14.336,31.991-32.009c-0.002-5.614-1.48-11.129-4.287-15.991H448c17.673,0,32-14.327,32-32
	S465.673,176.046,448,176.046z M169.136,248.046H32c-8.837,0-16-7.163-16-16s7.163-16,16-16h56v-16
	c-17.673,0.005-32.004-14.318-32.008-31.992c0-1.071,0.053-2.142,0.16-3.208c2.233-16.755,16.701-29.156,33.6-28.8h17.672
	l-1.944-9.6c-1.827-9.036-1.927-18.335-0.296-27.408c7.154-39.116,44.664-65.025,83.779-57.871
	c23.754,4.345,43.748,20.308,53.245,42.511l2.4,5.6l6.024-0.8c21.678-3.151,41.806,11.868,44.957,33.546
	c0.29,1.994,0.427,4.007,0.411,6.022v8h23.432c17.673,0.009,31.993,14.343,31.984,32.016c-0.001,2.694-0.343,5.376-1.016,7.984H256
	c-17.673,0.005-31.996,14.336-31.991,32.009c0.002,5.614,1.48,11.129,4.287,15.991H200
	C185.453,224.101,172.773,233.961,169.136,248.046L169.136,248.046z M448,224.046h-56v16c8.837,0,16,7.163,16,16
	c0,8.837-7.163,16-16,16H200c-8.837,0-16-7.163-16-16c0-8.837,7.163-16,16-16h56v-16c-8.837,0-16-7.163-16-16s7.163-16,16-16h192
	c8.837,0,16,7.163,16,16S456.837,224.046,448,224.046z"/>
<path id="SVGCleanerId_0_1_" d="M64,288.046h16v48H64V288.046z"/>
<path id="SVGCleanerId_1_1_" d="M64,352.046h16v48H64V352.046z"/>
<path id="SVGCleanerId_2_1_" d="M112,336.046h16v48h-16V336.046z"/>
<path id="SVGCleanerId_3_1_" d="M112,400.046h16v48h-16V400.046z"/>
<path id="SVGCleanerId_4_1_" d="M160,296.046h16v48h-16V296.046z"/>
<path id="SVGCleanerId_5_1_" d="M160,360.046h16v48h-16V360.046z"/>
<path id="SVGCleanerId_6_1_" d="M208,336.046h16v48h-16V336.046z"/>
<path id="SVGCleanerId_7_1_" d="M256,304.046h16v48h-16V304.046z"/>
<path id="SVGCleanerId_8_1_" d="M256,368.046h16v48h-16V368.046z"/>
<path id="SVGCleanerId_9_1_" d="M304,344.046h16v48h-16V344.046z"/>
<path id="SVGCleanerId_10_1_" d="M352,304.046h16v48h-16V304.046z"/>
<path id="SVGCleanerId_11_1_" d="M352,368.046h16v48h-16V368.046z"/>
<path id="SVGCleanerId_12_1_" d="M400,344.046h16v48h-16V344.046z"/>
<path id="SVGCleanerId_13_1_" d="M208,400.046h16v48h-16V400.046z"/>
<path id="SVGCleanerId_14_1_" d="M304,408.046h16v48h-16V408.046z"/>
<path id="SVGCleanerId_15_1_" d="M400,408.046h16v48h-16V408.046z"/>
<g>
</g>
<g>
</g>
<g>
</g>
<g>
</g>
<g>
</g>
<g>
</g>
<g>
</g>
<g>
</g>
<g>
</g>
<g>
</g>
<g>
</g>
<g>
</g>
<g>
</g>
<g>
</g>
<g>
</g>
</svg>
