<?xml version="1.0" encoding="iso-8859-1"?>
<!-- Generator: Adobe Illustrator 19.0.0, SVG Export Plug-In . SVG Version: 6.00 Build 0)  -->
<svg version="1.1" id="Capa_1" xmlns="http://www.w3.org/2000/svg" xmlns:xlink="http://www.w3.org/1999/xlink" x="0px" y="0px"
	 viewBox="0 0 480.005 480.005" style="enable-background:new 0 0 480.005 480.005;" xml:space="preserve">
<circle style="fill:#FFBB4A;" cx="240.003" cy="239.888" r="152"/>
<circle style="fill:#EC7422;" cx="240.003" cy="239.888" r="112"/>
<g>
	<path style="fill:#FFD884;" d="M424.003,207.888l48,32l-48,32V207.888z"/>
	<path style="fill:#FFD884;" d="M347.483,87.152l56.568-11.312l-11.312,56.568L347.483,87.152z"/>
	<path style="fill:#FFD884;" d="M208.003,55.888l32-48l32,48H208.003z"/>
	<path style="fill:#FFD884;" d="M87.267,132.408L75.955,75.84l56.568,11.312L87.267,132.408z"/>
	<path style="fill:#FFD884;" d="M132.523,392.624l-56.568,11.312l11.312-56.568L132.523,392.624z"/>
	<path style="fill:#FFD884;" d="M392.739,347.368l11.312,56.568l-56.568-11.312L392.739,347.368z"/>
	<path style="fill:#FFD884;" d="M56.003,271.888l-48-32l48-32V271.888z"/>
	<path style="fill:#FFD884;" d="M272.003,423.888l-32,48l-32-48H272.003z"/>
</g>
<path d="M400.003,239.888c0-88.366-71.634-160-160-160s-160,71.634-160,160s71.634,160,160,160
	C328.326,399.787,399.901,328.212,400.003,239.888z M240.003,383.888c-79.529,0-144-64.471-144-144s64.471-144,144-144
	s144,64.471,144,144C383.91,319.379,319.493,383.796,240.003,383.888z"/>
<path d="M240.003,119.888c-66.274,0-120,53.726-120,120s53.726,120,120,120s120-53.726,120-120
	C359.928,173.645,306.246,119.963,240.003,119.888z M240.003,343.888c-57.438,0-104-46.562-104-104s46.562-104,104-104
	s104,46.562,104,104C343.937,297.298,297.413,343.822,240.003,343.888z"/>
<path d="M420.227,278.944c2.603,1.393,5.761,1.239,8.216-0.4l48-32c3.676-2.451,4.669-7.418,2.218-11.094
	c-0.586-0.878-1.339-1.632-2.218-2.218l-48-32c-3.675-2.452-8.643-1.461-11.095,2.215c-0.877,1.315-1.345,2.86-1.345,4.441v64
	C416.001,274.839,417.625,277.551,420.227,278.944z M432.003,222.832l25.6,17.056l-25.6,17.056V222.832z"/>
<path d="M409.707,70.184c-1.887-1.882-4.586-2.7-7.2-2.184l-56.568,11.312c-4.332,0.869-7.139,5.085-6.27,9.417
	c0.31,1.545,1.069,2.964,2.182,4.079l45.256,45.256c1.5,1.5,3.534,2.344,5.656,2.344c0.784,0.004,1.563-0.112,2.312-0.344
	c2.822-0.853,4.947-3.189,5.528-6.08l11.312-56.576C412.433,74.782,411.605,72.071,409.707,70.184L409.707,70.184z M387.827,116.184
	l-24.12-24.12l30.144-6.024L387.827,116.184z"/>
<path d="M233.347,3.448l-32,48c-2.452,3.675-1.461,8.643,2.215,11.095c1.315,0.877,2.86,1.345,4.441,1.345h64
	c4.418,0.001,8.001-3.581,8.001-7.999c0-1.581-0.468-3.126-1.345-4.441l-32-48c-2.75-3.676-7.959-4.427-11.635-1.677
	C234.388,2.247,233.823,2.812,233.347,3.448L233.347,3.448z M222.955,47.888l17.048-25.6l17.048,25.6H222.955z"/>
<path d="M70.299,70.184c-1.882,1.887-2.7,4.586-2.184,7.2l11.312,56.576c0.581,2.89,2.706,5.227,5.528,6.08
	c0.749,0.232,1.528,0.348,2.312,0.344c2.122,0,4.156-0.844,5.656-2.344l45.256-45.256c3.122-3.127,3.118-8.192-0.009-11.314
	c-1.115-1.113-2.534-1.872-4.079-2.182L77.523,68C74.901,67.475,72.19,68.295,70.299,70.184z M116.299,92.064l-24.12,24.12
	L86.155,86.04L116.299,92.064z"/>
<path d="M75.955,411.936c0.537,0.001,1.073-0.053,1.6-0.16l56.568-11.312c4.332-0.869,7.139-5.085,6.27-9.417
	c-0.31-1.545-1.069-2.964-2.182-4.079l-45.256-45.256c-3.126-3.122-8.191-3.119-11.314,0.007c-1.112,1.114-1.871,2.531-2.182,4.073
	l-11.344,56.576c-0.884,4.329,1.909,8.555,6.238,9.438c0.527,0.108,1.064,0.162,1.602,0.162L75.955,411.936z M92.179,363.592
	l24.12,24.12l-30.144,6.024L92.179,363.592z"/>
<path d="M345.915,400.464l56.568,11.312c4.333,0.863,8.545-1.951,9.408-6.284c0.205-1.031,0.205-2.093,0-3.124l-11.312-56.576
	c-0.873-4.331-5.091-7.135-9.423-6.262c-1.543,0.311-2.96,1.07-4.073,2.182l-45.256,45.256c-3.122,3.127-3.118,8.192,0.009,11.314
	C342.951,399.395,344.37,400.154,345.915,400.464L345.915,400.464z M387.827,363.592l6.024,30.144l-30.144-6.024L387.827,363.592z"
	/>
<path d="M3.563,246.544l48,32c3.675,2.452,8.643,1.461,11.095-2.215c0.877-1.315,1.345-2.86,1.345-4.441v-64
	c0.001-4.418-3.581-8.001-7.999-8.001c-1.581,0-3.126,0.468-4.441,1.345l-48,32c-3.676,2.451-4.669,7.418-2.218,11.094
	C1.931,245.205,2.684,245.959,3.563,246.544z M48.003,222.832v34.112l-25.6-17.056L48.003,222.832z"/>
<path d="M272.003,415.888h-64c-4.418-0.001-8.001,3.581-8.001,7.999c0,1.581,0.468,3.126,1.345,4.441l32,48
	c2.451,3.676,7.418,4.669,11.094,2.218c0.878-0.586,1.632-1.339,2.218-2.218l32-48c2.452-3.675,1.461-8.643-2.215-11.095
	C275.129,416.356,273.583,415.888,272.003,415.888z M240.003,457.488l-17.048-25.6h34.096L240.003,457.488z"/>
<g>
</g>
<g>
</g>
<g>
</g>
<g>
</g>
<g>
</g>
<g>
</g>
<g>
</g>
<g>
</g>
<g>
</g>
<g>
</g>
<g>
</g>
<g>
</g>
<g>
</g>
<g>
</g>
<g>
</g>
</svg>
